<svg xmlns="http://www.w3.org/2000/svg" viewBox="0 0 128 128" role="img" aria-label="Shovel">
  <defs>
    <linearGradient id="handle" x1="41" x2="84" y1="18" y2="104" gradientUnits="userSpaceOnUse">
      <stop offset="0" stop-color="#d59a55"/>
      <stop offset=".5" stop-color="#9f6534"/>
      <stop offset="1" stop-color="#70401f"/>
    </linearGradient>
    <linearGradient id="blade" x1="66" x2="111" y1="71" y2="118" gradientUnits="userSpaceOnUse">
      <stop offset="0" stop-color="#d9e1df"/>
      <stop offset=".45" stop-color="#9ba9a9"/>
      <stop offset="1" stop-color="#526264"/>
    </linearGradient>
  </defs>
  <path fill="#5b341a" d="M32 15c6-7 18-9 27-4 4 2 7 6 8 10l-8 4c-1-3-3-5-6-7-5-3-12-2-16 2l-4 4c-2 2-5 2-7 0s-2-5 0-7l6-2Z"/>
  <path fill="url(#handle)" d="M52 25c3-2 8-1 10 3l33 63c2 4 1 8-3 10-3 2-8 1-10-3L49 35c-2-4-1-8 3-10Z"/>
  <path fill="#6f4528" d="m50 34 11-6 6 11-11 6-6-11Z" opacity=".7"/>
  <path fill="url(#blade)" d="M82 83c8-5 19-3 27 5 9 9 12 22 7 31-9 5-22 2-31-7-8-8-10-21-3-29Z"/>
  <path fill="#edf3ef" d="M88 88c5-3 13-2 19 4 6 6 8 14 5 20-9-7-17-15-24-24Z" opacity=".42"/>
  <path fill="#354447" d="M77 78c3-3 8-3 11 0l6 6c3 3 3 8 0 11s-8 3-11 0l-6-6c-3-3-3-8 0-11Z"/>
</svg>
